<mxfile host="app.diagrams.net" modified="2021-10-28T06:11:39.797Z" agent="5.0 (Windows NT 10.0; Win64; x64) AppleWebKit/537.36 (KHTML, like Gecko) Chrome/95.0.4638.54 Safari/537.36" etag="2MwUI2u5KYAqaQyvK-Fm" version="15.6.1" type="github">
  <diagram id="C5RBs43oDa-KdzZeNtuy" name="Page-1">
    <mxGraphModel dx="1692" dy="456" grid="1" gridSize="10" guides="1" tooltips="1" connect="1" arrows="1" fold="1" page="1" pageScale="1" pageWidth="827" pageHeight="1169" math="0" shadow="0">
      <root>
        <mxCell id="WIyWlLk6GJQsqaUBKTNV-0" />
        <mxCell id="WIyWlLk6GJQsqaUBKTNV-1" parent="WIyWlLk6GJQsqaUBKTNV-0" />
        <mxCell id="WIyWlLk6GJQsqaUBKTNV-7" value="dynamically change h1 to question 1" style="rounded=1;whiteSpace=wrap;html=1;fontSize=12;glass=0;strokeWidth=1;shadow=0;" parent="WIyWlLk6GJQsqaUBKTNV-1" vertex="1">
          <mxGeometry x="20" y="130" width="240" height="20" as="geometry" />
        </mxCell>
        <mxCell id="-LgzuQpmv8dKcP9akFZK-71" style="edgeStyle=orthogonalEdgeStyle;rounded=0;orthogonalLoop=1;jettySize=auto;html=1;entryX=0;entryY=0.5;entryDx=0;entryDy=0;" edge="1" parent="WIyWlLk6GJQsqaUBKTNV-1" source="-LgzuQpmv8dKcP9akFZK-10" target="-LgzuQpmv8dKcP9akFZK-70">
          <mxGeometry relative="1" as="geometry" />
        </mxCell>
        <mxCell id="-LgzuQpmv8dKcP9akFZK-10" value="append button options 1 - 4" style="rounded=1;whiteSpace=wrap;html=1;fontSize=12;glass=0;strokeWidth=1;shadow=0;" vertex="1" parent="WIyWlLk6GJQsqaUBKTNV-1">
          <mxGeometry x="20" y="150" width="240" height="20" as="geometry" />
        </mxCell>
        <mxCell id="-LgzuQpmv8dKcP9akFZK-11" value="remove main P" style="rounded=1;whiteSpace=wrap;html=1;fontSize=12;glass=0;strokeWidth=1;shadow=0;" vertex="1" parent="WIyWlLk6GJQsqaUBKTNV-1">
          <mxGeometry x="20" y="170" width="240" height="20" as="geometry" />
        </mxCell>
        <mxCell id="-LgzuQpmv8dKcP9akFZK-12" value="remove start quiz button" style="rounded=1;whiteSpace=wrap;html=1;fontSize=12;glass=0;strokeWidth=1;shadow=0;" vertex="1" parent="WIyWlLk6GJQsqaUBKTNV-1">
          <mxGeometry x="20" y="190" width="240" height="20" as="geometry" />
        </mxCell>
        <mxCell id="-LgzuQpmv8dKcP9akFZK-69" style="edgeStyle=orthogonalEdgeStyle;rounded=0;orthogonalLoop=1;jettySize=auto;html=1;entryX=0.25;entryY=0;entryDx=0;entryDy=0;" edge="1" parent="WIyWlLk6GJQsqaUBKTNV-1" source="-LgzuQpmv8dKcP9akFZK-54" target="WIyWlLk6GJQsqaUBKTNV-7">
          <mxGeometry relative="1" as="geometry" />
        </mxCell>
        <mxCell id="-LgzuQpmv8dKcP9akFZK-54" value="Start Quiz Button&lt;br&gt;on click event" style="ellipse;whiteSpace=wrap;html=1;" vertex="1" parent="WIyWlLk6GJQsqaUBKTNV-1">
          <mxGeometry x="20" y="10" width="120" height="80" as="geometry" />
        </mxCell>
        <mxCell id="-LgzuQpmv8dKcP9akFZK-80" style="edgeStyle=orthogonalEdgeStyle;rounded=0;orthogonalLoop=1;jettySize=auto;html=1;entryX=0;entryY=0.5;entryDx=0;entryDy=0;" edge="1" parent="WIyWlLk6GJQsqaUBKTNV-1" source="-LgzuQpmv8dKcP9akFZK-70" target="-LgzuQpmv8dKcP9akFZK-74">
          <mxGeometry relative="1" as="geometry" />
        </mxCell>
        <mxCell id="-LgzuQpmv8dKcP9akFZK-89" style="edgeStyle=orthogonalEdgeStyle;rounded=0;orthogonalLoop=1;jettySize=auto;html=1;entryX=0;entryY=0.75;entryDx=0;entryDy=0;" edge="1" parent="WIyWlLk6GJQsqaUBKTNV-1" source="-LgzuQpmv8dKcP9akFZK-70" target="-LgzuQpmv8dKcP9akFZK-77">
          <mxGeometry relative="1" as="geometry" />
        </mxCell>
        <mxCell id="-LgzuQpmv8dKcP9akFZK-70" value="Q1 : Option buttons&lt;br&gt;on click events" style="ellipse;whiteSpace=wrap;html=1;" vertex="1" parent="WIyWlLk6GJQsqaUBKTNV-1">
          <mxGeometry x="30" y="340" width="120" height="80" as="geometry" />
        </mxCell>
        <mxCell id="-LgzuQpmv8dKcP9akFZK-73" value="dynamically change h1 to question 2" style="rounded=1;whiteSpace=wrap;html=1;fontSize=12;glass=0;strokeWidth=1;shadow=0;" vertex="1" parent="WIyWlLk6GJQsqaUBKTNV-1">
          <mxGeometry x="230" y="450" width="240" height="20" as="geometry" />
        </mxCell>
        <mxCell id="-LgzuQpmv8dKcP9akFZK-74" value="dynamically change options 1 - 4" style="rounded=1;whiteSpace=wrap;html=1;fontSize=12;glass=0;strokeWidth=1;shadow=0;" vertex="1" parent="WIyWlLk6GJQsqaUBKTNV-1">
          <mxGeometry x="230" y="470" width="240" height="20" as="geometry" />
        </mxCell>
        <mxCell id="-LgzuQpmv8dKcP9akFZK-75" value="display Correct for 2 seconds - appended below options" style="rounded=1;whiteSpace=wrap;html=1;fontSize=12;glass=0;strokeWidth=1;shadow=0;" vertex="1" parent="WIyWlLk6GJQsqaUBKTNV-1">
          <mxGeometry x="230" y="490" width="240" height="40" as="geometry" />
        </mxCell>
        <mxCell id="-LgzuQpmv8dKcP9akFZK-76" value="dynamically change h1 to question 2" style="rounded=1;whiteSpace=wrap;html=1;fontSize=12;glass=0;strokeWidth=1;shadow=0;" vertex="1" parent="WIyWlLk6GJQsqaUBKTNV-1">
          <mxGeometry x="230" y="260" width="240" height="20" as="geometry" />
        </mxCell>
        <mxCell id="-LgzuQpmv8dKcP9akFZK-77" value="dynamically change options 1 - 4" style="rounded=1;whiteSpace=wrap;html=1;fontSize=12;glass=0;strokeWidth=1;shadow=0;" vertex="1" parent="WIyWlLk6GJQsqaUBKTNV-1">
          <mxGeometry x="230" y="280" width="240" height="20" as="geometry" />
        </mxCell>
        <mxCell id="-LgzuQpmv8dKcP9akFZK-78" value="display Incorrect for 2 seconds - appended below options" style="rounded=1;whiteSpace=wrap;html=1;fontSize=12;glass=0;strokeWidth=1;shadow=0;" vertex="1" parent="WIyWlLk6GJQsqaUBKTNV-1">
          <mxGeometry x="230" y="300" width="240" height="40" as="geometry" />
        </mxCell>
        <mxCell id="-LgzuQpmv8dKcP9akFZK-79" value="deduct 10 seconds from timer" style="rounded=1;whiteSpace=wrap;html=1;fontSize=12;glass=0;strokeWidth=1;shadow=0;" vertex="1" parent="WIyWlLk6GJQsqaUBKTNV-1">
          <mxGeometry x="230" y="340" width="240" height="20" as="geometry" />
        </mxCell>
        <mxCell id="-LgzuQpmv8dKcP9akFZK-83" value="if option is correct" style="text;html=1;strokeColor=none;fillColor=none;align=center;verticalAlign=middle;whiteSpace=wrap;rounded=0;" vertex="1" parent="WIyWlLk6GJQsqaUBKTNV-1">
          <mxGeometry x="130" y="460" width="60" height="30" as="geometry" />
        </mxCell>
        <mxCell id="-LgzuQpmv8dKcP9akFZK-86" value="if option is incorrect" style="text;html=1;strokeColor=none;fillColor=none;align=center;verticalAlign=middle;whiteSpace=wrap;rounded=0;" vertex="1" parent="WIyWlLk6GJQsqaUBKTNV-1">
          <mxGeometry x="130" y="290" width="60" height="30" as="geometry" />
        </mxCell>
        <mxCell id="-LgzuQpmv8dKcP9akFZK-90" value="Q2 : Option buttons&lt;br&gt;on click events" style="ellipse;whiteSpace=wrap;html=1;" vertex="1" parent="WIyWlLk6GJQsqaUBKTNV-1">
          <mxGeometry x="570" y="350" width="120" height="80" as="geometry" />
        </mxCell>
      </root>
    </mxGraphModel>
  </diagram>
</mxfile>
